<svg xmlns="http://www.w3.org/2000/svg" viewBox="0 0 90.59 90.59"><defs><style>.cls-1{isolation:isolate;}.cls-2{fill:#4d4d4d;mix-blend-mode:multiply;}.cls-3{fill:#fff;}</style></defs><title>자산 2</title><g class="cls-1"><g id="레이어_2" data-name="레이어 2"><g id="main"><rect class="cls-2" width="90.59" height="90.59" rx="9.57"/><path class="cls-3" d="M67.61,43.13a2.25,2.25,0,1,0,2.25,2.24A2.24,2.24,0,0,0,67.61,43.13Z"/><path class="cls-3" d="M59.37,35.55a2.3,2.3,0,1,0,2.3,2.3A2.31,2.31,0,0,0,59.37,35.55Z"/><path class="cls-3" d="M59.37,50.44a2.3,2.3,0,1,0,2.3,2.3A2.31,2.31,0,0,0,59.37,50.44Z"/><path class="cls-3" d="M51.18,28.1a2.31,2.31,0,1,0,2.3,2.3A2.3,2.3,0,0,0,51.18,28.1Z"/><path class="cls-3" d="M51.18,57.88a2.31,2.31,0,1,0,2.3,2.31A2.3,2.3,0,0,0,51.18,57.88Z"/><path class="cls-3" d="M43,20.65A2.31,2.31,0,1,0,45.29,23,2.3,2.3,0,0,0,43,20.65Z"/><path class="cls-3" d="M43,65.33a2.3,2.3,0,1,0,2.3,2.3A2.3,2.3,0,0,0,43,65.33Z"/><circle class="cls-3" cx="34.8" cy="15.51" r="2.3"/><circle class="cls-3" cx="34.8" cy="75.08" r="2.3"/></g></g></g></svg>
