<svg xmlns="http://www.w3.org/2000/svg" viewBox="0 0 90.59 90.59"><defs><style>.cls-1{isolation:isolate;}.cls-2{fill:#4d4d4d;mix-blend-mode:multiply;}.cls-3{fill:#fff;}</style></defs><title>자산 2</title><g class="cls-1"><g id="레이어_2" data-name="레이어 2"><g id="main"><rect class="cls-2" width="90.59" height="90.59" rx="9.57" transform="translate(90.59 90.59) rotate(180)"/><path class="cls-3" d="M23,43.13a2.25,2.25,0,1,1-2.24,2.24A2.24,2.24,0,0,1,23,43.13Z"/><path class="cls-3" d="M31.22,35.55a2.3,2.3,0,1,1-2.3,2.3A2.3,2.3,0,0,1,31.22,35.55Z"/><path class="cls-3" d="M31.22,50.44a2.3,2.3,0,1,1-2.3,2.3A2.3,2.3,0,0,1,31.22,50.44Z"/><path class="cls-3" d="M39.41,28.1a2.31,2.31,0,1,1-2.3,2.3A2.3,2.3,0,0,1,39.41,28.1Z"/><path class="cls-3" d="M39.41,57.88a2.31,2.31,0,1,1-2.3,2.31A2.3,2.3,0,0,1,39.41,57.88Z"/><path class="cls-3" d="M47.6,20.65A2.31,2.31,0,1,1,45.29,23,2.3,2.3,0,0,1,47.6,20.65Z"/><path class="cls-3" d="M47.6,65.33a2.3,2.3,0,1,1-2.31,2.3A2.3,2.3,0,0,1,47.6,65.33Z"/><circle class="cls-3" cx="55.78" cy="15.51" r="2.3"/><circle class="cls-3" cx="55.78" cy="75.08" r="2.3"/></g></g></g></svg>